<mxfile host="app.diagrams.net" modified="2023-10-23T09:24:42.775Z" agent="Mozilla/5.0 (Windows NT 10.0; Win64; x64) AppleWebKit/537.36 (KHTML, like Gecko) Chrome/118.0.0.0 Safari/537.36 Edg/118.0.2088.57" etag="jV71mpLVKWTsuAj0kLQi" version="22.0.6" type="device">
  <diagram name="Page-1" id="OqqoXb1L9ptJkIAH_we2">
    <mxGraphModel dx="1246" dy="1721" grid="1" gridSize="10" guides="1" tooltips="1" connect="1" arrows="1" fold="1" page="1" pageScale="1" pageWidth="850" pageHeight="1100" math="0" shadow="0">
      <root>
        <mxCell id="0" />
        <mxCell id="1" parent="0" />
        <mxCell id="AfpGQ-X8AJTqHow6dgdj-3" value="&lt;font style=&quot;font-size: 18px;&quot;&gt;Make-up_Services&lt;/font&gt;" style="whiteSpace=wrap;html=1;align=center;" vertex="1" parent="1">
          <mxGeometry x="110" y="-110" width="240" height="80" as="geometry" />
        </mxCell>
        <mxCell id="AfpGQ-X8AJTqHow6dgdj-4" value="&lt;font style=&quot;font-size: 18px;&quot;&gt;Services&lt;/font&gt;" style="whiteSpace=wrap;html=1;align=center;" vertex="1" parent="1">
          <mxGeometry x="430" y="-70" width="240" height="80" as="geometry" />
        </mxCell>
        <mxCell id="AfpGQ-X8AJTqHow6dgdj-5" value="&lt;font style=&quot;font-size: 18px;&quot;&gt;Artist&#39;s_Session&lt;/font&gt;" style="whiteSpace=wrap;html=1;align=center;" vertex="1" parent="1">
          <mxGeometry x="760" y="-130" width="240" height="80" as="geometry" />
        </mxCell>
        <mxCell id="AfpGQ-X8AJTqHow6dgdj-6" value="&lt;font style=&quot;font-size: 18px;&quot;&gt;Artists&#39; Portfolio&lt;/font&gt;" style="whiteSpace=wrap;html=1;align=center;" vertex="1" parent="1">
          <mxGeometry x="1080" y="-260" width="240" height="80" as="geometry" />
        </mxCell>
        <mxCell id="AfpGQ-X8AJTqHow6dgdj-7" value="&lt;font style=&quot;font-size: 18px;&quot;&gt;Booking&lt;/font&gt;" style="whiteSpace=wrap;html=1;align=center;" vertex="1" parent="1">
          <mxGeometry x="425" y="160" width="240" height="80" as="geometry" />
        </mxCell>
        <mxCell id="AfpGQ-X8AJTqHow6dgdj-8" value="&lt;font style=&quot;font-size: 18px;&quot;&gt;Detail_Booking&lt;/font&gt;" style="whiteSpace=wrap;html=1;align=center;" vertex="1" parent="1">
          <mxGeometry x="760" y="60" width="240" height="80" as="geometry" />
        </mxCell>
        <mxCell id="AfpGQ-X8AJTqHow6dgdj-9" value="" style="edgeStyle=entityRelationEdgeStyle;fontSize=12;html=1;endArrow=ERzeroToMany;startArrow=ERmandOne;rounded=0;entryX=0;entryY=0.5;entryDx=0;entryDy=0;exitX=1;exitY=0.5;exitDx=0;exitDy=0;" edge="1" parent="1" source="AfpGQ-X8AJTqHow6dgdj-3" target="AfpGQ-X8AJTqHow6dgdj-4">
          <mxGeometry width="100" height="100" relative="1" as="geometry">
            <mxPoint x="260" y="460" as="sourcePoint" />
            <mxPoint x="360" y="360" as="targetPoint" />
          </mxGeometry>
        </mxCell>
        <mxCell id="AfpGQ-X8AJTqHow6dgdj-10" value="" style="edgeStyle=entityRelationEdgeStyle;fontSize=12;html=1;endArrow=ERzeroToMany;startArrow=ERzeroToOne;rounded=0;entryX=0;entryY=0.5;entryDx=0;entryDy=0;exitX=1;exitY=0.5;exitDx=0;exitDy=0;" edge="1" parent="1" source="AfpGQ-X8AJTqHow6dgdj-4" target="AfpGQ-X8AJTqHow6dgdj-5">
          <mxGeometry width="100" height="100" relative="1" as="geometry">
            <mxPoint x="620" y="460" as="sourcePoint" />
            <mxPoint x="720" y="360" as="targetPoint" />
          </mxGeometry>
        </mxCell>
        <mxCell id="AfpGQ-X8AJTqHow6dgdj-12" value="" style="edgeStyle=entityRelationEdgeStyle;fontSize=12;html=1;endArrow=ERzeroToMany;startArrow=ERzeroToOne;rounded=0;entryX=1;entryY=0.25;entryDx=0;entryDy=0;exitX=0;exitY=0.5;exitDx=0;exitDy=0;" edge="1" parent="1" source="AfpGQ-X8AJTqHow6dgdj-6" target="AfpGQ-X8AJTqHow6dgdj-5">
          <mxGeometry width="100" height="100" relative="1" as="geometry">
            <mxPoint x="620" y="460" as="sourcePoint" />
            <mxPoint x="720" y="360" as="targetPoint" />
          </mxGeometry>
        </mxCell>
        <mxCell id="AfpGQ-X8AJTqHow6dgdj-13" value="" style="edgeStyle=entityRelationEdgeStyle;fontSize=12;html=1;endArrow=ERoneToMany;startArrow=ERmandOne;rounded=0;exitX=0.998;exitY=0.835;exitDx=0;exitDy=0;exitPerimeter=0;" edge="1" parent="1" source="AfpGQ-X8AJTqHow6dgdj-5" target="AfpGQ-X8AJTqHow6dgdj-8">
          <mxGeometry width="100" height="100" relative="1" as="geometry">
            <mxPoint x="1280" y="110" as="sourcePoint" />
            <mxPoint x="1140" y="220" as="targetPoint" />
          </mxGeometry>
        </mxCell>
        <mxCell id="AfpGQ-X8AJTqHow6dgdj-15" value="" style="edgeStyle=entityRelationEdgeStyle;fontSize=12;html=1;endArrow=ERoneToMany;startArrow=ERmandOne;rounded=0;exitX=1;exitY=0.5;exitDx=0;exitDy=0;" edge="1" parent="1" source="AfpGQ-X8AJTqHow6dgdj-7" target="AfpGQ-X8AJTqHow6dgdj-8">
          <mxGeometry width="100" height="100" relative="1" as="geometry">
            <mxPoint x="730" y="590" as="sourcePoint" />
            <mxPoint x="890" y="319.6551724137931" as="targetPoint" />
          </mxGeometry>
        </mxCell>
      </root>
    </mxGraphModel>
  </diagram>
</mxfile>
